<svg width="16" height="16" viewBox="0 0 16 16" fill="none" xmlns="http://www.w3.org/2000/svg">
<path fill-rule="evenodd" clip-rule="evenodd" d="M10.8635 6.40362L7.81816 10.4036C7.69283 10.5683 7.49883 10.6656 7.29216 10.667H7.2875C7.08283 10.667 6.8895 10.5723 6.76283 10.411L5.1415 8.33962C4.91483 8.05028 4.9655 7.63095 5.2555 7.40428C5.54483 7.17695 5.96483 7.22762 6.1915 7.51828L7.28016 8.90895L9.80283 5.59628C10.0255 5.30362 10.4435 5.24628 10.7375 5.46962C11.0302 5.69295 11.0868 6.11095 10.8635 6.40362ZM8.00016 1.33362C4.31816 1.33362 1.3335 4.31828 1.3335 8.00028C1.3335 11.6816 4.31816 14.667 8.00016 14.667C11.6822 14.667 14.6668 11.6816 14.6668 8.00028C14.6668 4.31828 11.6822 1.33362 8.00016 1.33362Z" fill="#EA7C69"/>
<mask id="mask0" mask-type="alpha" maskUnits="userSpaceOnUse" x="1" y="1" width="14" height="14">
<path fill-rule="evenodd" clip-rule="evenodd" d="M10.8635 6.40362L7.81816 10.4036C7.69283 10.5683 7.49883 10.6656 7.29216 10.667H7.2875C7.08283 10.667 6.8895 10.5723 6.76283 10.411L5.1415 8.33962C4.91483 8.05028 4.9655 7.63095 5.2555 7.40428C5.54483 7.17695 5.96483 7.22762 6.1915 7.51828L7.28016 8.90895L9.80283 5.59628C10.0255 5.30362 10.4435 5.24628 10.7375 5.46962C11.0302 5.69295 11.0868 6.11095 10.8635 6.40362ZM8.00016 1.33362C4.31816 1.33362 1.3335 4.31828 1.3335 8.00028C1.3335 11.6816 4.31816 14.667 8.00016 14.667C11.6822 14.667 14.6668 11.6816 14.6668 8.00028C14.6668 4.31828 11.6822 1.33362 8.00016 1.33362Z" fill="white"/>
</mask>
<g mask="url(#mask0)">
<rect width="16" height="16" fill="#EA7C69"/>
</g>
</svg>
